{
    "frames": [
        {
            "media_type": "video",
            "stream_index": 0,
            "key_frame": 1,
            "pts": 1509128,
            "pts_time": "16.768089",
            "pkt_dts": 1509128,
            "pkt_dts_time": "16.768089",
            "best_effort_timestamp": 1509128,
            "best_effort_timestamp_time": "16.768089",
            "duration": 3600,
            "duration_time": "0.040000",
            "pkt_pos": "376",
            "pkt_size": "30635",
            "width": 1280,
            "height": 720,
            "crop_top": 0,
            "crop_bottom": 0,
            "crop_left": 0,
            "crop_right": 0,
            "pix_fmt": "yuv420p",
            "pict_type": "I",
            "interlaced_frame": 0,
            "top_field_first": 0,
            "repeat_pict": 0,
            "color_range": "tv",
            "chroma_location": "left",
            "side_data_list": [
                {
                    "side_data_type": "H.26[45] User Data Unregistered SEI message"
                }
            ]
        },
        {
            "media_type": "video",
            "stream_index": 0,
            "key_frame": 0,
            "pts": 1512728,
            "pts_time": "16.808089",
            "pkt_dts": 1512728,
            "pkt_dts_time": "16.808089",
            "best_effort_timestamp": 1512728,
            "best_effort_timestamp_time": "16.808089",
            "duration": 3600,
            "duration_time": "0.040000",
            "pkt_pos": "72944",
            "pkt_size": "2076",
            "width": 1280,
            "height": 720,
            "crop_top": 0,
            "crop_bottom": 0,
            "crop_left": 0,
            "crop_right": 0,
            "pix_fmt": "yuv420p",
            "pict_type": "B",
            "interlaced_frame": 0,
            "top_field_first": 0,
            "repeat_pict": 0,
            "color_range": "tv",
            "chroma_location": "left"
        },
        {
            "media_type": "video",
            "stream_index": 0,
            "key_frame": 0,
            "pts": 1516328,
            "pts_time": "16.848089",
            "pkt_dts": 1516328,
            "pkt_dts_time": "16.848089",
            "best_effort_timestamp": 1516328,
            "best_effort_timestamp_time": "16.848089",
            "duration": 3600,
            "duration_time": "0.040000",
            "pkt_pos": "69372",
            "pkt_size": "3452",
            "width": 1280,
            "height": 720,
            "crop_top": 0,
            "crop_bottom": 0,
            "crop_left": 0,
            "crop_right": 0,
            "pix_fmt": "yuv420p",
            "pict_type": "B",
            "interlaced_frame": 0,
            "top_field_first": 0,
            "repeat_pict": 0,
            "color_range": "tv",
            "chroma_location": "left"
        },
        {
            "media_type": "video",
            "stream_index": 0,
            "key_frame": 0,
            "pts": 1519928,
            "pts_time": "16.888089",
            "pkt_dts": 1519928,
            "pkt_dts_time": "16.888089",
            "best_effort_timestamp": 1519928,
            "best_effort_timestamp_time": "16.888089",
            "duration": 3600,
            "duration_time": "0.040000",
            "pkt_pos": "75012",
            "pkt_size": "2692",
            "width": 1280,
            "height": 720,
            "crop_top": 0,
            "crop_bottom": 0,
            "crop_left": 0,
            "crop_right": 0,
            "pix_fmt": "yuv420p",
            "pict_type": "B",
            "interlaced_frame": 0,
            "top_field_first": 0,
            "repeat_pict": 0,
            "color_range": "tv",
            "chroma_location": "left"
        },
        {
            "media_type": "video",
            "stream_index": 0,
            "key_frame": 0,
            "pts": 1523528,
            "pts_time": "16.928089",
            "pkt_dts": 1523528,
            "pkt_dts_time": "16.928089",
            "best_effort_timestamp": 1523528,
            "best_effort_timestamp_time": "16.928089",
            "duration": 3600,
            "duration_time": "0.040000",
            "pkt_pos": "63168",
            "pkt_size": "5980",
            "width": 1280,
            "height": 720,
            "crop_top": 0,
            "crop_bottom": 0,
            "crop_left": 0,
            "crop_right": 0,
            "pix_fmt": "yuv420p",
            "pict_type": "P",
            "interlaced_frame": 0,
            "top_field_first": 0,
            "repeat_pict": 0,
            "color_range": "tv",
            "chroma_location": "left"
        },
        {
            "media_type": "video",
            "stream_index": 0,
            "key_frame": 0,
            "pts": 1527128,
            "pts_time": "16.968089",
            "pkt_dts": 1527128,
            "pkt_dts_time": "16.968089",
            "best_effort_timestamp": 1527128,
            "best_effort_timestamp_time": "16.968089",
            "duration": 3600,
            "duration_time": "0.040000",
            "pkt_pos": "93436",
            "pkt_size": "2171",
            "width": 1280,
            "height": 720,
            "crop_top": 0,
            "crop_bottom": 0,
            "crop_left": 0,
            "crop_right": 0,
            "pix_fmt": "yuv420p",
            "pict_type": "B",
            "interlaced_frame": 0,
            "top_field_first": 0,
            "repeat_pict": 0,
            "color_range": "tv",
            "chroma_location": "left"
        },
        {
            "media_type": "video",
            "stream_index": 0,
            "key_frame": 0,
            "pts": 1530728,
            "pts_time": "17.008089",
            "pkt_dts": 1530728,
            "pkt_dts_time": "17.008089",
            "best_effort_timestamp": 1530728,
            "best_effort_timestamp_time": "17.008089",
            "duration": 3600,
            "duration_time": "0.040000",
            "pkt_pos": "87608",
            "pkt_size": "5754",
            "width": 1280,
            "height": 720,
            "crop_top": 0,
            "crop_bottom": 0,
            "crop_left": 0,
            "crop_right": 0,
            "pix_fmt": "yuv420p",
            "pict_type": "B",
            "interlaced_frame": 0,
            "top_field_first": 0,
            "repeat_pict": 0,
            "color_range": "tv",
            "chroma_location": "left"
        },
        {
            "media_type": "video",
            "stream_index": 0,
            "key_frame": 0,
            "pts": 1534328,
            "pts_time": "17.048089",
            "pkt_dts": 1534328,
            "pkt_dts_time": "17.048089",
            "best_effort_timestamp": 1534328,
            "best_effort_timestamp_time": "17.048089",
            "duration": 3600,
            "duration_time": "0.040000",
            "pkt_pos": "95692",
            "pkt_size": "2989",
            "width": 1280,
            "height": 720,
            "crop_top": 0,
            "crop_bottom": 0,
            "crop_left": 0,
            "crop_right": 0,
            "pix_fmt": "yuv420p",
            "pict_type": "B",
            "interlaced_frame": 0,
            "top_field_first": 0,
            "repeat_pict": 0,
            "color_range": "tv",
            "chroma_location": "left"
        },
        {
            "media_type": "video",
            "stream_index": 0,
            "key_frame": 0,
            "pts": 1537928,
            "pts_time": "17.088089",
            "pkt_dts": 1537928,
            "pkt_dts_time": "17.088089",
            "best_effort_timestamp": 1537928,
            "best_effort_timestamp_time": "17.088089",
            "duration": 3600,
            "duration_time": "0.040000",
            "pkt_pos": "77832",
            "pkt_size": "9559",
            "width": 1280,
            "height": 720,
            "crop_top": 0,
            "crop_bottom": 0,
            "crop_left": 0,
            "crop_right": 0,
            "pix_fmt": "yuv420p",
            "pict_type": "P",
            "interlaced_frame": 0,
            "top_field_first": 0,
            "repeat_pict": 0,
            "color_range": "tv",
            "chroma_location": "left"
        },
        {
            "media_type": "video",
            "stream_index": 0,
            "key_frame": 0,
            "pts": 1541528,
            "pts_time": "17.128089",
            "pkt_dts": 1541528,
            "pkt_dts_time": "17.128089",
            "best_effort_timestamp": 1541528,
            "best_effort_timestamp_time": "17.128089",
            "duration": 3600,
            "duration_time": "0.040000",
            "pkt_pos": "113552",
            "pkt_size": "4156",
            "width": 1280,
            "height": 720,
            "crop_top": 0,
            "crop_bottom": 0,
            "crop_left": 0,
            "crop_right": 0,
            "pix_fmt": "yuv420p",
            "pict_type": "B",
            "interlaced_frame": 0,
            "top_field_first": 0,
            "repeat_pict": 0,
            "color_range": "tv",
            "chroma_location": "left"
        },
        {
            "media_type": "video",
            "stream_index": 0,
            "key_frame": 0,
            "pts": 1545128,
            "pts_time": "17.168089",
            "pkt_dts": 1545128,
            "pkt_dts_time": "17.168089",
            "best_effort_timestamp": 1545128,
            "best_effort_timestamp_time": "17.168089",
            "duration": 3600,
            "duration_time": "0.040000",
            "pkt_pos": "99264",
            "pkt_size": "13962",
            "width": 1280,
            "height": 720,
            "crop_top": 0,
            "crop_bottom": 0,
            "crop_left": 0,
            "crop_right": 0,
            "pix_fmt": "yuv420p",
            "pict_type": "P",
            "interlaced_frame": 0,
            "top_field_first": 0,
            "repeat_pict": 0,
            "color_range": "tv",
            "chroma_location": "left"
        },
        {
            "media_type": "video",
            "stream_index": 0,
            "key_frame": 0,
            "pts": 1548728,
            "pts_time": "17.208089",
            "pkt_dts": 1548728,
            "pkt_dts_time": "17.208089",
            "best_effort_timestamp": 1548728,
            "best_effort_timestamp_time": "17.208089",
            "duration": 3600,
            "duration_time": "0.040000",
            "pkt_pos": "117688",
            "pkt_size": "209260",
            "width": 1280,
            "height": 720,
            "crop_top": 0,
            "crop_bottom": 0,
            "crop_left": 0,
            "crop_right": 0,
            "pix_fmt": "yuv420p",
            "pict_type": "I",
            "interlaced_frame": 0,
            "top_field_first": 0,
            "repeat_pict": 0,
            "color_range": "tv",
            "chroma_location": "left"
        },
        {
            "media_type": "video",
            "stream_index": 0,
            "key_frame": 0,
            "pts": 1552328,
            "pts_time": "17.248089",
            "pkt_dts": 1552328,
            "pkt_dts_time": "17.248089",
            "best_effort_timestamp": 1552328,
            "best_effort_timestamp_time": "17.248089",
            "duration": 3600,
            "duration_time": "0.040000",
            "pkt_pos": "360584",
            "pkt_size": "152",
            "width": 1280,
            "height": 720,
            "crop_top": 0,
            "crop_bottom": 0,
            "crop_left": 0,
            "crop_right": 0,
            "pix_fmt": "yuv420p",
            "pict_type": "B",
            "interlaced_frame": 0,
            "top_field_first": 0,
            "repeat_pict": 0,
            "color_range": "tv",
            "chroma_location": "left"
        },
        {
            "media_type": "video",
            "stream_index": 0,
            "key_frame": 0,
            "pts": 1555928,
            "pts_time": "17.288089",
            "pkt_dts": 1555928,
            "pkt_dts_time": "17.288089",
            "best_effort_timestamp": 1555928,
            "best_effort_timestamp_time": "17.288089",
            "duration": 3600,
            "duration_time": "0.040000",
            "pkt_pos": "334264",
            "pkt_size": "25698",
            "width": 1280,
            "height": 720,
            "crop_top": 0,
            "crop_bottom": 0,
            "crop_left": 0,
            "crop_right": 0,
            "pix_fmt": "yuv420p",
            "pict_type": "P",
            "interlaced_frame": 0,
            "top_field_first": 0,
            "repeat_pict": 0,
            "color_range": "tv",
            "chroma_location": "left"
        },
        {
            "media_type": "video",
            "stream_index": 0,
            "key_frame": 0,
            "pts": 1559528,
            "pts_time": "17.328089",
            "pkt_dts": 1559528,
            "pkt_dts_time": "17.328089",
            "best_effort_timestamp": 1559528,
            "best_effort_timestamp_time": "17.328089",
            "duration": 3600,
            "duration_time": "0.040000",
            "pkt_pos": "363404",
            "pkt_size": "94",
            "width": 1280,
            "height": 720,
            "crop_top": 0,
            "crop_bottom": 0,
            "crop_left": 0,
            "crop_right": 0,
            "pix_fmt": "yuv420p",
            "pict_type": "B",
            "interlaced_frame": 0,
            "top_field_first": 0,
            "repeat_pict": 0,
            "color_range": "tv",
            "chroma_location": "left"
        },
        {
            "media_type": "video",
            "stream_index": 0,
            "key_frame": 0,
            "pts": 1563128,
            "pts_time": "17.368089",
            "pkt_dts": 1563128,
            "pkt_dts_time": "17.368089",
            "best_effort_timestamp": 1563128,
            "best_effort_timestamp_time": "17.368089",
            "duration": 3600,
            "duration_time": "0.040000",
            "pkt_pos": "363592",
            "pkt_size": "102",
            "width": 1280,
            "height": 720,
            "crop_top": 0,
            "crop_bottom": 0,
            "crop_left": 0,
            "crop_right": 0,
            "pix_fmt": "yuv420p",
            "pict_type": "B",
            "interlaced_frame": 0,
            "top_field_first": 0,
            "repeat_pict": 0,
            "color_range": "tv",
            "chroma_location": "left"
        },
        {
            "media_type": "video",
            "stream_index": 0,
            "key_frame": 0,
            "pts": 1566728,
            "pts_time": "17.408089",
            "pkt_dts": 1566728,
            "pkt_dts_time": "17.408089",
            "best_effort_timestamp": 1566728,
            "best_effort_timestamp_time": "17.408089",
            "duration": 3600,
            "duration_time": "0.040000",
            "pkt_pos": "363216",
            "pkt_size": "128",
            "width": 1280,
            "height": 720,
            "crop_top": 0,
            "crop_bottom": 0,
            "crop_left": 0,
            "crop_right": 0,
            "pix_fmt": "yuv420p",
            "pict_type": "B",
            "interlaced_frame": 0,
            "top_field_first": 0,
            "repeat_pict": 0,
            "color_range": "tv",
            "chroma_location": "left"
        },
        {
            "media_type": "video",
            "stream_index": 0,
            "key_frame": 0,
            "pts": 1570328,
            "pts_time": "17.448089",
            "pkt_dts": 1570328,
            "pkt_dts_time": "17.448089",
            "best_effort_timestamp": 1570328,
            "best_effort_timestamp_time": "17.448089",
            "duration": 3600,
            "duration_time": "0.040000",
            "pkt_pos": "363780",
            "pkt_size": "74",
            "width": 1280,
            "height": 720,
            "crop_top": 0,
            "crop_bottom": 0,
            "crop_left": 0,
            "crop_right": 0,
            "pix_fmt": "yuv420p",
            "pict_type": "B",
            "interlaced_frame": 0,
            "top_field_first": 0,
            "repeat_pict": 0,
            "color_range": "tv",
            "chroma_location": "left"
        },
        {
            "media_type": "video",
            "stream_index": 0,
            "key_frame": 0,
            "pts": 1573928,
            "pts_time": "17.488089",
            "pkt_dts": 1573928,
            "pkt_dts_time": "17.488089",
            "best_effort_timestamp": 1573928,
            "best_effort_timestamp_time": "17.488089",
            "duration": 3600,
            "duration_time": "0.040000",
            "pkt_pos": "360772",
            "pkt_size": "2299",
            "width": 1280,
            "height": 720,
            "crop_top": 0,
            "crop_bottom": 0,
            "crop_left": 0,
            "crop_right": 0,
            "pix_fmt": "yuv420p",
            "pict_type": "P",
            "interlaced_frame": 0,
            "top_field_first": 0,
            "repeat_pict": 0,
            "color_range": "tv",
            "chroma_location": "left"
        },
        {
            "media_type": "video",
            "stream_index": 0,
            "key_frame": 0,
            "pts": 1577528,
            "pts_time": "17.528089",
            "pkt_dts": 1577528,
            "pkt_dts_time": "17.528089",
            "best_effort_timestamp": 1577528,
            "best_effort_timestamp_time": "17.528089",
            "duration": 3600,
            "duration_time": "0.040000",
            "pkt_pos": "393672",
            "pkt_size": "127",
            "width": 1280,
            "height": 720,
            "crop_top": 0,
            "crop_bottom": 0,
            "crop_left": 0,
            "crop_right": 0,
            "pix_fmt": "yuv420p",
            "pict_type": "B",
            "interlaced_frame": 0,
            "top_field_first": 0,
            "repeat_pict": 0,
            "color_range": "tv",
            "chroma_location": "left"
        },
        {
            "media_type": "video",
            "stream_index": 0,
            "key_frame": 0,
            "pts": 1581128,
            "pts_time": "17.568089",
            "pkt_dts": 1581128,
            "pkt_dts_time": "17.568089",
            "best_effort_timestamp": 1581128,
            "best_effort_timestamp_time": "17.568089",
            "duration": 3600,
            "duration_time": "0.040000",
            "pkt_pos": "393484",
            "pkt_size": "233",
            "width": 1280,
            "height": 720,
            "crop_top": 0,
            "crop_bottom": 0,
            "crop_left": 0,
            "crop_right": 0,
            "pix_fmt": "yuv420p",
            "pict_type": "B",
            "interlaced_frame": 0,
            "top_field_first": 0,
            "repeat_pict": 0,
            "color_range": "tv",
            "chroma_location": "left"
        },
        {
            "media_type": "video",
            "stream_index": 0,
            "key_frame": 0,
            "pts": 1584728,
            "pts_time": "17.608089",
            "pkt_dts": 1584728,
            "pkt_dts_time": "17.608089",
            "best_effort_timestamp": 1584728,
            "best_effort_timestamp_time": "17.608089",
            "duration": 3600,
            "duration_time": "0.040000",
            "pkt_pos": "393860",
            "pkt_size": "99",
            "width": 1280,
            "height": 720,
            "crop_top": 0,
            "crop_bottom": 0,
            "crop_left": 0,
            "crop_right": 0,
            "pix_fmt": "yuv420p",
            "pict_type": "B",
            "interlaced_frame": 0,
            "top_field_first": 0,
            "repeat_pict": 0,
            "color_range": "tv",
            "chroma_location": "left"
        },
        {
            "media_type": "video",
            "stream_index": 0,
            "key_frame": 0,
            "pts": 1588328,
            "pts_time": "17.648089",
            "pkt_dts": 1588328,
            "pkt_dts_time": "17.648089",
            "best_effort_timestamp": 1588328,
            "best_effort_timestamp_time": "17.648089",
            "duration": 3600,
            "duration_time": "0.040000",
            "pkt_pos": "363968",
            "pkt_size": "28898",
            "width": 1280,
            "height": 720,
            "crop_top": 0,
            "crop_bottom": 0,
            "crop_left": 0,
            "crop_right": 0,
            "pix_fmt": "yuv420p",
            "pict_type": "P",
            "interlaced_frame": 0,
            "top_field_first": 0,
            "repeat_pict": 0,
            "color_range": "tv",
            "chroma_location": "left"
        },
        {
            "media_type": "video",
            "stream_index": 0,
            "key_frame": 0,
            "pts": 1591928,
            "pts_time": "17.688089",
            "pkt_dts": 1591928,
            "pkt_dts_time": "17.688089",
            "best_effort_timestamp": 1591928,
            "best_effort_timestamp_time": "17.688089",
            "duration": 3600,
            "duration_time": "0.040000",
            "pkt_pos": "395740",
            "pkt_size": "99",
            "width": 1280,
            "height": 720,
            "crop_top": 0,
            "crop_bottom": 0,
            "crop_left": 0,
            "crop_right": 0,
            "pix_fmt": "yuv420p",
            "pict_type": "B",
            "interlaced_frame": 0,
            "top_field_first": 0,
            "repeat_pict": 0,
            "color_range": "tv",
            "chroma_location": "left"
        },
        {
            "media_type": "video",
            "stream_index": 0,
            "key_frame": 0,
            "pts": 1595528,
            "pts_time": "17.728089",
            "pkt_dts": 1595528,
            "pkt_dts_time": "17.728089",
            "best_effort_timestamp": 1595528,
            "best_effort_timestamp_time": "17.728089",
            "duration": 3600,
            "duration_time": "0.040000",
            "pkt_pos": "395552",
            "pkt_size": "130",
            "width": 1280,
            "height": 720,
            "crop_top": 0,
            "crop_bottom": 0,
            "crop_left": 0,
            "crop_right": 0,
            "pix_fmt": "yuv420p",
            "pict_type": "B",
            "interlaced_frame": 0,
            "top_field_first": 0,
            "repeat_pict": 0,
            "color_range": "tv",
            "chroma_location": "left"
        },
        {
            "media_type": "video",
            "stream_index": 0,
            "key_frame": 0,
            "pts": 1599128,
            "pts_time": "17.768089",
            "pkt_dts": 1599128,
            "pkt_dts_time": "17.768089",
            "best_effort_timestamp": 1599128,
            "best_effort_timestamp_time": "17.768089",
            "duration": 3600,
            "duration_time": "0.040000",
            "pkt_pos": "394048",
            "pkt_size": "1449",
            "width": 1280,
            "height": 720,
            "crop_top": 0,
            "crop_bottom": 0,
            "crop_left": 0,
            "crop_right": 0,
            "pix_fmt": "yuv420p",
            "pict_type": "P",
            "interlaced_frame": 0,
            "top_field_first": 0,
            "repeat_pict": 0,
            "color_range": "tv",
            "chroma_location": "left"
        },
        {
            "media_type": "video",
            "stream_index": 0,
            "key_frame": 0,
            "pts": 1602728,
            "pts_time": "17.808089",
            "pkt_dts": 1602728,
            "pkt_dts_time": "17.808089",
            "best_effort_timestamp": 1602728,
            "best_effort_timestamp_time": "17.808089",
            "duration": 3600,
            "duration_time": "0.040000",
            "pkt_pos": "400252",
            "pkt_size": "130",
            "width": 1280,
            "height": 720,
            "crop_top": 0,
            "crop_bottom": 0,
            "crop_left": 0,
            "crop_right": 0,
            "pix_fmt": "yuv420p",
            "pict_type": "B",
            "interlaced_frame": 0,
            "top_field_first": 0,
            "repeat_pict": 0,
            "color_range": "tv",
            "chroma_location": "left"
        },
        {
            "media_type": "video",
            "stream_index": 0,
            "key_frame": 0,
            "pts": 1606328,
            "pts_time": "17.848089",
            "pkt_dts": 1606328,
            "pkt_dts_time": "17.848089",
            "best_effort_timestamp": 1606328,
            "best_effort_timestamp_time": "17.848089",
            "duration": 3600,
            "duration_time": "0.040000",
            "pkt_pos": "400440",
            "pkt_size": "139",
            "width": 1280,
            "height": 720,
            "crop_top": 0,
            "crop_bottom": 0,
            "crop_left": 0,
            "crop_right": 0,
            "pix_fmt": "yuv420p",
            "pict_type": "B",
            "interlaced_frame": 0,
            "top_field_first": 0,
            "repeat_pict": 0,
            "color_range": "tv",
            "chroma_location": "left"
        },
        {
            "media_type": "video",
            "stream_index": 0,
            "key_frame": 0,
            "pts": 1609928,
            "pts_time": "17.888089",
            "pkt_dts": 1609928,
            "pkt_dts_time": "17.888089",
            "best_effort_timestamp": 1609928,
            "best_effort_timestamp_time": "17.888089",
            "duration": 3600,
            "duration_time": "0.040000",
            "pkt_pos": "399876",
            "pkt_size": "202",
            "width": 1280,
            "height": 720,
            "crop_top": 0,
            "crop_bottom": 0,
            "crop_left": 0,
            "crop_right": 0,
            "pix_fmt": "yuv420p",
            "pict_type": "B",
            "interlaced_frame": 0,
            "top_field_first": 0,
            "repeat_pict": 0,
            "color_range": "tv",
            "chroma_location": "left"
        },
        {
            "media_type": "video",
            "stream_index": 0,
            "key_frame": 0,
            "pts": 1613528,
            "pts_time": "17.928089",
            "pkt_dts": 1613528,
            "pkt_dts_time": "17.928089",
            "best_effort_timestamp": 1613528,
            "best_effort_timestamp_time": "17.928089",
            "duration": 3600,
            "duration_time": "0.040000",
            "pkt_pos": "400628",
            "pkt_size": "92",
            "width": 1280,
            "height": 720,
            "crop_top": 0,
            "crop_bottom": 0,
            "crop_left": 0,
            "crop_right": 0,
            "pix_fmt": "yuv420p",
            "pict_type": "B",
            "interlaced_frame": 0,
            "top_field_first": 0,
            "repeat_pict": 0,
            "color_range": "tv",
            "chroma_location": "left"
        },
        {
            "media_type": "video",
            "stream_index": 0,
            "key_frame": 0,
            "pts": 1617128,
            "pts_time": "17.968089",
            "pkt_dts": 1617128,
            "pkt_dts_time": "17.968089",
            "best_effort_timestamp": 1617128,
            "best_effort_timestamp_time": "17.968089",
            "duration": 3600,
            "duration_time": "0.040000",
            "pkt_pos": "395928",
            "pkt_size": "3988",
            "width": 1280,
            "height": 720,
            "crop_top": 0,
            "crop_bottom": 0,
            "crop_left": 0,
            "crop_right": 0,
            "pix_fmt": "yuv420p",
            "pict_type": "P",
            "interlaced_frame": 0,
            "top_field_first": 0,
            "repeat_pict": 0,
            "color_range": "tv",
            "chroma_location": "left"
        },
        {
            "media_type": "video",
            "stream_index": 0,
            "key_frame": 0,
            "pts": 1620728,
            "pts_time": "18.008089",
            "pkt_dts": 1620728,
            "pkt_dts_time": "18.008089",
            "best_effort_timestamp": 1620728,
            "best_effort_timestamp_time": "18.008089",
            "duration": 3600,
            "duration_time": "0.040000",
            "pkt_pos": "419992",
            "pkt_size": "146",
            "width": 1280,
            "height": 720,
            "crop_top": 0,
            "crop_bottom": 0,
            "crop_left": 0,
            "crop_right": 0,
            "pix_fmt": "yuv420p",
            "pict_type": "B",
            "interlaced_frame": 0,
            "top_field_first": 0,
            "repeat_pict": 0,
            "color_range": "tv",
            "chroma_location": "left"
        },
        {
            "media_type": "video",
            "stream_index": 0,
            "key_frame": 0,
            "pts": 1624328,
            "pts_time": "18.048089",
            "pkt_dts": 1624328,
            "pkt_dts_time": "18.048089",
            "best_effort_timestamp": 1624328,
            "best_effort_timestamp_time": "18.048089",
            "duration": 3600,
            "duration_time": "0.040000",
            "pkt_pos": "419804",
            "pkt_size": "200",
            "width": 1280,
            "height": 720,
            "crop_top": 0,
            "crop_bottom": 0,
            "crop_left": 0,
            "crop_right": 0,
            "pix_fmt": "yuv420p",
            "pict_type": "B",
            "interlaced_frame": 0,
            "top_field_first": 0,
            "repeat_pict": 0,
            "color_range": "tv",
            "chroma_location": "left"
        },
        {
            "media_type": "video",
            "stream_index": 0,
            "key_frame": 0,
            "pts": 1627928,
            "pts_time": "18.088089",
            "pkt_dts": 1627928,
            "pkt_dts_time": "18.088089",
            "best_effort_timestamp": 1627928,
            "best_effort_timestamp_time": "18.088089",
            "duration": 3600,
            "duration_time": "0.040000",
            "pkt_pos": "420180",
            "pkt_size": "98",
            "width": 1280,
            "height": 720,
            "crop_top": 0,
            "crop_bottom": 0,
            "crop_left": 0,
            "crop_right": 0,
            "pix_fmt": "yuv420p",
            "pict_type": "B",
            "interlaced_frame": 0,
            "top_field_first": 0,
            "repeat_pict": 0,
            "color_range": "tv",
            "chroma_location": "left"
        },
        {
            "media_type": "video",
            "stream_index": 0,
            "key_frame": 0,
            "pts": 1631528,
            "pts_time": "18.128089",
            "pkt_dts": 1631528,
            "pkt_dts_time": "18.128089",
            "best_effort_timestamp": 1631528,
            "best_effort_timestamp_time": "18.128089",
            "duration": 3600,
            "duration_time": "0.040000",
            "pkt_pos": "400816",
            "pkt_size": "18652",
            "width": 1280,
            "height": 720,
            "crop_top": 0,
            "crop_bottom": 0,
            "crop_left": 0,
            "crop_right": 0,
            "pix_fmt": "yuv420p",
            "pict_type": "P",
            "interlaced_frame": 0,
            "top_field_first": 0,
            "repeat_pict": 0,
            "color_range": "tv",
            "chroma_location": "left"
        },
        {
            "media_type": "video",
            "stream_index": 0,
            "key_frame": 0,
            "pts": 1635128,
            "pts_time": "18.168089",
            "pkt_dts": 1635128,
            "pkt_dts_time": "18.168089",
            "best_effort_timestamp": 1635128,
            "best_effort_timestamp_time": "18.168089",
            "duration": 3600,
            "duration_time": "0.040000",
            "pkt_pos": "429392",
            "pkt_size": "151",
            "width": 1280,
            "height": 720,
            "crop_top": 0,
            "crop_bottom": 0,
            "crop_left": 0,
            "crop_right": 0,
            "pix_fmt": "yuv420p",
            "pict_type": "B",
            "interlaced_frame": 0,
            "top_field_first": 0,
            "repeat_pict": 0,
            "color_range": "tv",
            "chroma_location": "left"
        },
        {
            "media_type": "video",
            "stream_index": 0,
            "key_frame": 0,
            "pts": 1638728,
            "pts_time": "18.208089",
            "pkt_dts": 1638728,
            "pkt_dts_time": "18.208089",
            "best_effort_timestamp": 1638728,
            "best_effort_timestamp_time": "18.208089",
            "duration": 3600,
            "duration_time": "0.040000",
            "pkt_pos": "429580",
            "pkt_size": "156",
            "width": 1280,
            "height": 720,
            "crop_top": 0,
            "crop_bottom": 0,
            "crop_left": 0,
            "crop_right": 0,
            "pix_fmt": "yuv420p",
            "pict_type": "B",
            "interlaced_frame": 0,
            "top_field_first": 0,
            "repeat_pict": 0,
            "color_range": "tv",
            "chroma_location": "left"
        },
        {
            "media_type": "video",
            "stream_index": 0,
            "key_frame": 0,
            "pts": 1642328,
            "pts_time": "18.248089",
            "pkt_dts": 1642328,
            "pkt_dts_time": "18.248089",
            "best_effort_timestamp": 1642328,
            "best_effort_timestamp_time": "18.248089",
            "duration": 3600,
            "duration_time": "0.040000",
            "pkt_pos": "429204",
            "pkt_size": "190",
            "width": 1280,
            "height": 720,
            "crop_top": 0,
            "crop_bottom": 0,
            "crop_left": 0,
            "crop_right": 0,
            "pix_fmt": "yuv420p",
            "pict_type": "B",
            "interlaced_frame": 0,
            "top_field_first": 0,
            "repeat_pict": 0,
            "color_range": "tv",
            "chroma_location": "left"
        },
        {
            "media_type": "video",
            "stream_index": 0,
            "key_frame": 0,
            "pts": 1645928,
            "pts_time": "18.288089",
            "pkt_dts": 1645928,
            "pkt_dts_time": "18.288089",
            "best_effort_timestamp": 1645928,
            "best_effort_timestamp_time": "18.288089",
            "duration": 3600,
            "duration_time": "0.040000",
            "pkt_pos": "429768",
            "pkt_size": "108",
            "width": 1280,
            "height": 720,
            "crop_top": 0,
            "crop_bottom": 0,
            "crop_left": 0,
            "crop_right": 0,
            "pix_fmt": "yuv420p",
            "pict_type": "B",
            "interlaced_frame": 0,
            "top_field_first": 0,
            "repeat_pict": 0,
            "color_range": "tv",
            "chroma_location": "left"
        },
        {
            "media_type": "video",
            "stream_index": 0,
            "key_frame": 0,
            "pts": 1649528,
            "pts_time": "18.328089",
            "pkt_dts": 1649528,
            "pkt_dts_time": "18.328089",
            "best_effort_timestamp": 1649528,
            "best_effort_timestamp_time": "18.328089",
            "duration": 3600,
            "duration_time": "0.040000",
            "pkt_pos": "420368",
            "pkt_size": "8666",
            "width": 1280,
            "height": 720,
            "crop_top": 0,
            "crop_bottom": 0,
            "crop_left": 0,
            "crop_right": 0,
            "pix_fmt": "yuv420p",
            "pict_type": "P",
            "interlaced_frame": 0,
            "top_field_first": 0,
            "repeat_pict": 0,
            "color_range": "tv",
            "chroma_location": "left"
        },
        {
            "media_type": "video",
            "stream_index": 0,
            "key_frame": 0,
            "pts": 1653128,
            "pts_time": "18.368089",
            "pkt_dts": 1653128,
            "pkt_dts_time": "18.368089",
            "best_effort_timestamp": 1653128,
            "best_effort_timestamp_time": "18.368089",
            "duration": 3600,
            "duration_time": "0.040000",
            "pkt_pos": "440484",
            "pkt_size": "97",
            "width": 1280,
            "height": 720,
            "crop_top": 0,
            "crop_bottom": 0,
            "crop_left": 0,
            "crop_right": 0,
            "pix_fmt": "yuv420p",
            "pict_type": "B",
            "interlaced_frame": 0,
            "top_field_first": 0,
            "repeat_pict": 0,
            "color_range": "tv",
            "chroma_location": "left"
        },
        {
            "media_type": "video",
            "stream_index": 0,
            "key_frame": 0,
            "pts": 1656728,
            "pts_time": "18.408089",
            "pkt_dts": 1656728,
            "pkt_dts_time": "18.408089",
            "best_effort_timestamp": 1656728,
            "best_effort_timestamp_time": "18.408089",
            "duration": 3600,
            "duration_time": "0.040000",
            "pkt_pos": "440296",
            "pkt_size": "162",
            "width": 1280,
            "height": 720,
            "crop_top": 0,
            "crop_bottom": 0,
            "crop_left": 0,
            "crop_right": 0,
            "pix_fmt": "yuv420p",
            "pict_type": "B",
            "interlaced_frame": 0,
            "top_field_first": 0,
            "repeat_pict": 0,
            "color_range": "tv",
            "chroma_location": "left"
        },
        {
            "media_type": "video",
            "stream_index": 0,
            "key_frame": 0,
            "pts": 1660328,
            "pts_time": "18.448089",
            "pkt_dts": 1660328,
            "pkt_dts_time": "18.448089",
            "best_effort_timestamp": 1660328,
            "best_effort_timestamp_time": "18.448089",
            "duration": 3600,
            "duration_time": "0.040000",
            "pkt_pos": "440672",
            "pkt_size": "81",
            "width": 1280,
            "height": 720,
            "crop_top": 0,
            "crop_bottom": 0,
            "crop_left": 0,
            "crop_right": 0,
            "pix_fmt": "yuv420p",
            "pict_type": "B",
            "interlaced_frame": 0,
            "top_field_first": 0,
            "repeat_pict": 0,
            "color_range": "tv",
            "chroma_location": "left"
        },
        {
            "media_type": "video",
            "stream_index": 0,
            "key_frame": 0,
            "pts": 1663928,
            "pts_time": "18.488089",
            "pkt_dts": 1663928,
            "pkt_dts_time": "18.488089",
            "best_effort_timestamp": 1663928,
            "best_effort_timestamp_time": "18.488089",
            "duration": 3600,
            "duration_time": "0.040000",
            "pkt_pos": "429956",
            "pkt_size": "9991",
            "width": 1280,
            "height": 720,
            "crop_top": 0,
            "crop_bottom": 0,
            "crop_left": 0,
            "crop_right": 0,
            "pix_fmt": "yuv420p",
            "pict_type": "P",
            "interlaced_frame": 0,
            "top_field_first": 0,
            "repeat_pict": 0,
            "color_range": "tv",
            "chroma_location": "left"
        },
        {
            "media_type": "video",
            "stream_index": 0,
            "key_frame": 0,
            "pts": 1667528,
            "pts_time": "18.528089",
            "pkt_dts": 1667528,
            "pkt_dts_time": "18.528089",
            "best_effort_timestamp": 1667528,
            "best_effort_timestamp_time": "18.528089",
            "duration": 3600,
            "duration_time": "0.040000",
            "pkt_pos": "451200",
            "pkt_size": "106",
            "width": 1280,
            "height": 720,
            "crop_top": 0,
            "crop_bottom": 0,
            "crop_left": 0,
            "crop_right": 0,
            "pix_fmt": "yuv420p",
            "pict_type": "B",
            "interlaced_frame": 0,
            "top_field_first": 0,
            "repeat_pict": 0,
            "color_range": "tv",
            "chroma_location": "left"
        },
        {
            "media_type": "video",
            "stream_index": 0,
            "key_frame": 0,
            "pts": 1671128,
            "pts_time": "18.568089",
            "pkt_dts": 1671128,
            "pkt_dts_time": "18.568089",
            "best_effort_timestamp": 1671128,
            "best_effort_timestamp_time": "18.568089",
            "duration": 3600,
            "duration_time": "0.040000",
            "pkt_pos": "451012",
            "pkt_size": "130",
            "width": 1280,
            "height": 720,
            "crop_top": 0,
            "crop_bottom": 0,
            "crop_left": 0,
            "crop_right": 0,
            "pix_fmt": "yuv420p",
            "pict_type": "B",
            "interlaced_frame": 0,
            "top_field_first": 0,
            "repeat_pict": 0,
            "color_range": "tv",
            "chroma_location": "left"
        },
        {
            "media_type": "video",
            "stream_index": 0,
            "key_frame": 0,
            "pts": 1674728,
            "pts_time": "18.608089",
            "pkt_dts": 1674728,
            "pkt_dts_time": "18.608089",
            "best_effort_timestamp": 1674728,
            "best_effort_timestamp_time": "18.608089",
            "duration": 3600,
            "duration_time": "0.040000",
            "pkt_pos": "440860",
            "pkt_size": "9929",
            "width": 1280,
            "height": 720,
            "crop_top": 0,
            "crop_bottom": 0,
            "crop_left": 0,
            "crop_right": 0,
            "pix_fmt": "yuv420p",
            "pict_type": "P",
            "interlaced_frame": 0,
            "top_field_first": 0,
            "repeat_pict": 0,
            "color_range": "tv",
            "chroma_location": "left"
        },
        {
            "media_type": "video",
            "stream_index": 0,
            "key_frame": 0,
            "pts": 1678328,
            "pts_time": "18.648089",
            "pkt_dts": 1678328,
            "pkt_dts_time": "18.648089",
            "best_effort_timestamp": 1678328,
            "best_effort_timestamp_time": "18.648089",
            "duration": 3600,
            "duration_time": "0.040000",
            "pkt_pos": "465488",
            "pkt_size": "117",
            "width": 1280,
            "height": 720,
            "crop_top": 0,
            "crop_bottom": 0,
            "crop_left": 0,
            "crop_right": 0,
            "pix_fmt": "yuv420p",
            "pict_type": "B",
            "interlaced_frame": 0,
            "top_field_first": 0,
            "repeat_pict": 0,
            "color_range": "tv",
            "chroma_location": "left"
        },
        {
            "media_type": "video",
            "stream_index": 0,
            "key_frame": 0,
            "pts": 1681928,
            "pts_time": "18.688089",
            "pkt_dts": 1681928,
            "pkt_dts_time": "18.688089",
            "best_effort_timestamp": 1681928,
            "best_effort_timestamp_time": "18.688089",
            "duration": 3600,
            "duration_time": "0.040000",
            "pkt_pos": "465300",
            "pkt_size": "133",
            "width": 1280,
            "height": 720,
            "crop_top": 0,
            "crop_bottom": 0,
            "crop_left": 0,
            "crop_right": 0,
            "pix_fmt": "yuv420p",
            "pict_type": "B",
            "interlaced_frame": 0,
            "top_field_first": 0,
            "repeat_pict": 0,
            "color_range": "tv",
            "chroma_location": "left"
        },
        {
            "media_type": "video",
            "stream_index": 0,
            "key_frame": 0,
            "pts": 1685528,
            "pts_time": "18.728089",
            "pkt_dts": 1685528,
            "pkt_dts_time": "18.728089",
            "best_effort_timestamp": 1685528,
            "best_effort_timestamp_time": "18.728089",
            "duration": 3600,
            "duration_time": "0.040000",
            "pkt_pos": "451388",
            "pkt_size": "13362",
            "width": 1280,
            "height": 720,
            "crop_top": 0,
            "crop_bottom": 0,
            "crop_left": 0,
            "crop_right": 0,
            "pix_fmt": "yuv420p",
            "pict_type": "P",
            "interlaced_frame": 0,
            "top_field_first": 0,
            "repeat_pict": 0,
            "color_range": "tv",
            "chroma_location": "left"
        },
        {
            "media_type": "video",
            "stream_index": 0,
            "key_frame": 0,
            "pts": 1689128,
            "pts_time": "18.768089",
            "pkt_dts": 1689128,
            "pkt_dts_time": "18.768089",
            "best_effort_timestamp": 1689128,
            "best_effort_timestamp_time": "18.768089",
            "duration": 3600,
            "duration_time": "0.040000",
            "pkt_pos": "473760",
            "pkt_size": "109",
            "width": 1280,
            "height": 720,
            "crop_top": 0,
            "crop_bottom": 0,
            "crop_left": 0,
            "crop_right": 0,
            "pix_fmt": "yuv420p",
            "pict_type": "B",
            "interlaced_frame": 0,
            "top_field_first": 0,
            "repeat_pict": 0,
            "color_range": "tv",
            "chroma_location": "left"
        },
        {
            "media_type": "video",
            "stream_index": 0,
            "key_frame": 0,
            "pts": 1692728,
            "pts_time": "18.808089",
            "pkt_dts": 1692728,
            "pkt_dts_time": "18.808089",
            "best_effort_timestamp": 1692728,
            "best_effort_timestamp_time": "18.808089",
            "duration": 3600,
            "duration_time": "0.040000",
            "pkt_pos": "473384",
            "pkt_size": "274",
            "width": 1280,
            "height": 720,
            "crop_top": 0,
            "crop_bottom": 0,
            "crop_left": 0,
            "crop_right": 0,
            "pix_fmt": "yuv420p",
            "pict_type": "B",
            "interlaced_frame": 0,
            "top_field_first": 0,
            "repeat_pict": 0,
            "color_range": "tv",
            "chroma_location": "left"
        },
        {
            "media_type": "video",
            "stream_index": 0,
            "key_frame": 0,
            "pts": 1696328,
            "pts_time": "18.848089",
            "pkt_dts": 1696328,
            "pkt_dts_time": "18.848089",
            "best_effort_timestamp": 1696328,
            "best_effort_timestamp_time": "18.848089",
            "duration": 3600,
            "duration_time": "0.040000",
            "pkt_pos": "473948",
            "pkt_size": "106",
            "width": 1280,
            "height": 720,
            "crop_top": 0,
            "crop_bottom": 0,
            "crop_left": 0,
            "crop_right": 0,
            "pix_fmt": "yuv420p",
            "pict_type": "B",
            "interlaced_frame": 0,
            "top_field_first": 0,
            "repeat_pict": 0,
            "color_range": "tv",
            "chroma_location": "left"
        },
        {
            "media_type": "video",
            "stream_index": 0,
            "key_frame": 0,
            "pts": 1699928,
            "pts_time": "18.888089",
            "pkt_dts": 1699928,
            "pkt_dts_time": "18.888089",
            "best_effort_timestamp": 1699928,
            "best_effort_timestamp_time": "18.888089",
            "duration": 3600,
            "duration_time": "0.040000",
            "pkt_pos": "465676",
            "pkt_size": "7606",
            "width": 1280,
            "height": 720,
            "crop_top": 0,
            "crop_bottom": 0,
            "crop_left": 0,
            "crop_right": 0,
            "pix_fmt": "yuv420p",
            "pict_type": "P",
            "interlaced_frame": 0,
            "top_field_first": 0,
            "repeat_pict": 0,
            "color_range": "tv",
            "chroma_location": "left"
        },
        {
            "media_type": "video",
            "stream_index": 0,
            "key_frame": 0,
            "pts": 1703528,
            "pts_time": "18.928089",
            "pkt_dts": 1703528,
            "pkt_dts_time": "18.928089",
            "best_effort_timestamp": 1703528,
            "best_effort_timestamp_time": "18.928089",
            "duration": 3600,
            "duration_time": "0.040000",
            "pkt_pos": "487296",
            "pkt_size": "123",
            "width": 1280,
            "height": 720,
            "crop_top": 0,
            "crop_bottom": 0,
            "crop_left": 0,
            "crop_right": 0,
            "pix_fmt": "yuv420p",
            "pict_type": "B",
            "interlaced_frame": 0,
            "top_field_first": 0,
            "repeat_pict": 0,
            "color_range": "tv",
            "chroma_location": "left"
        },
        {
            "media_type": "video",
            "stream_index": 0,
            "key_frame": 0,
            "pts": 1707128,
            "pts_time": "18.968089",
            "pkt_dts": 1707128,
            "pkt_dts_time": "18.968089",
            "best_effort_timestamp": 1707128,
            "best_effort_timestamp_time": "18.968089",
            "duration": 3600,
            "duration_time": "0.040000",
            "pkt_pos": "487108",
            "pkt_size": "218",
            "width": 1280,
            "height": 720,
            "crop_top": 0,
            "crop_bottom": 0,
            "crop_left": 0,
            "crop_right": 0,
            "pix_fmt": "yuv420p",
            "pict_type": "B",
            "interlaced_frame": 0,
            "top_field_first": 0,
            "repeat_pict": 0,
            "color_range": "tv",
            "chroma_location": "left"
        },
        {
            "media_type": "video",
            "stream_index": 0,
            "key_frame": 0,
            "pts": 1710728,
            "pts_time": "19.008089",
            "pkt_dts": 1710728,
            "pkt_dts_time": "19.008089",
            "best_effort_timestamp": 1710728,
            "best_effort_timestamp_time": "19.008089",
            "duration": 3600,
            "duration_time": "0.040000",
            "pkt_pos": "487484",
            "pkt_size": "111",
            "width": 1280,
            "height": 720,
            "crop_top": 0,
            "crop_bottom": 0,
            "crop_left": 0,
            "crop_right": 0,
            "pix_fmt": "yuv420p",
            "pict_type": "B",
            "interlaced_frame": 0,
            "top_field_first": 0,
            "repeat_pict": 0,
            "color_range": "tv",
            "chroma_location": "left"
        },
        {
            "media_type": "video",
            "stream_index": 0,
            "key_frame": 0,
            "pts": 1714328,
            "pts_time": "19.048089",
            "pkt_dts": 1714328,
            "pkt_dts_time": "19.048089",
            "best_effort_timestamp": 1714328,
            "best_effort_timestamp_time": "19.048089",
            "duration": 3600,
            "duration_time": "0.040000",
            "pkt_pos": "474136",
            "pkt_size": "12359",
            "width": 1280,
            "height": 720,
            "crop_top": 0,
            "crop_bottom": 0,
            "crop_left": 0,
            "crop_right": 0,
            "pix_fmt": "yuv420p",
            "pict_type": "P",
            "interlaced_frame": 0,
            "top_field_first": 0,
            "repeat_pict": 0,
            "color_range": "tv",
            "chroma_location": "left"
        },
        {
            "media_type": "video",
            "stream_index": 0,
            "key_frame": 0,
            "pts": 1717928,
            "pts_time": "19.088089",
            "pkt_dts": 1717928,
            "pkt_dts_time": "19.088089",
            "best_effort_timestamp": 1717928,
            "best_effort_timestamp_time": "19.088089",
            "duration": 3600,
            "duration_time": "0.040000",
            "pkt_pos": "513240",
            "pkt_size": "142",
            "width": 1280,
            "height": 720,
            "crop_top": 0,
            "crop_bottom": 0,
            "crop_left": 0,
            "crop_right": 0,
            "pix_fmt": "yuv420p",
            "pict_type": "B",
            "interlaced_frame": 0,
            "top_field_first": 0,
            "repeat_pict": 0,
            "color_range": "tv",
            "chroma_location": "left"
        },
        {
            "media_type": "video",
            "stream_index": 0,
            "key_frame": 0,
            "pts": 1721528,
            "pts_time": "19.128089",
            "pkt_dts": 1721528,
            "pkt_dts_time": "19.128089",
            "best_effort_timestamp": 1721528,
            "best_effort_timestamp_time": "19.128089",
            "duration": 3600,
            "duration_time": "0.040000",
            "pkt_pos": "512676",
            "pkt_size": "261",
            "width": 1280,
            "height": 720,
            "crop_top": 0,
            "crop_bottom": 0,
            "crop_left": 0,
            "crop_right": 0,
            "pix_fmt": "yuv420p",
            "pict_type": "B",
            "interlaced_frame": 0,
            "top_field_first": 0,
            "repeat_pict": 0,
            "color_range": "tv",
            "chroma_location": "left"
        },
        {
            "media_type": "video",
            "stream_index": 0,
            "key_frame": 0,
            "pts": 1725128,
            "pts_time": "19.168089",
            "pkt_dts": 1725128,
            "pkt_dts_time": "19.168089",
            "best_effort_timestamp": 1725128,
            "best_effort_timestamp_time": "19.168089",
            "duration": 3600,
            "duration_time": "0.040000",
            "pkt_pos": "513428",
            "pkt_size": "120",
            "width": 1280,
            "height": 720,
            "crop_top": 0,
            "crop_bottom": 0,
            "crop_left": 0,
            "crop_right": 0,
            "pix_fmt": "yuv420p",
            "pict_type": "B",
            "interlaced_frame": 0,
            "top_field_first": 0,
            "repeat_pict": 0,
            "color_range": "tv",
            "chroma_location": "left"
        },
        {
            "media_type": "video",
            "stream_index": 0,
            "key_frame": 0,
            "pts": 1728728,
            "pts_time": "19.208089",
            "pkt_dts": 1728728,
            "pkt_dts_time": "19.208089",
            "best_effort_timestamp": 1728728,
            "best_effort_timestamp_time": "19.208089",
            "duration": 3600,
            "duration_time": "0.040000",
            "pkt_pos": "487672",
            "pkt_size": "24109",
            "width": 1280,
            "height": 720,
            "crop_top": 0,
            "crop_bottom": 0,
            "crop_left": 0,
            "crop_right": 0,
            "pix_fmt": "yuv420p",
            "pict_type": "P",
            "interlaced_frame": 0,
            "top_field_first": 0,
            "repeat_pict": 0,
            "color_range": "tv",
            "chroma_location": "left"
        },
        {
            "media_type": "video",
            "stream_index": 0,
            "key_frame": 0,
            "pts": 1732328,
            "pts_time": "19.248089",
            "pkt_dts": 1732328,
            "pkt_dts_time": "19.248089",
            "best_effort_timestamp": 1732328,
            "best_effort_timestamp_time": "19.248089",
            "duration": 3600,
            "duration_time": "0.040000",
            "pkt_pos": "528468",
            "pkt_size": "153",
            "width": 1280,
            "height": 720,
            "crop_top": 0,
            "crop_bottom": 0,
            "crop_left": 0,
            "crop_right": 0,
            "pix_fmt": "yuv420p",
            "pict_type": "B",
            "interlaced_frame": 0,
            "top_field_first": 0,
            "repeat_pict": 0,
            "color_range": "tv",
            "chroma_location": "left"
        },
        {
            "media_type": "video",
            "stream_index": 0,
            "key_frame": 0,
            "pts": 1735928,
            "pts_time": "19.288089",
            "pkt_dts": 1735928,
            "pkt_dts_time": "19.288089",
            "best_effort_timestamp": 1735928,
            "best_effort_timestamp_time": "19.288089",
            "duration": 3600,
            "duration_time": "0.040000",
            "pkt_pos": "527716",
            "pkt_size": "789",
            "width": 1280,
            "height": 720,
            "crop_top": 0,
            "crop_bottom": 0,
            "crop_left": 0,
            "crop_right": 0,
            "pix_fmt": "yuv420p",
            "pict_type": "B",
            "interlaced_frame": 0,
            "top_field_first": 0,
            "repeat_pict": 0,
            "color_range": "tv",
            "chroma_location": "left"
        },
        {
            "media_type": "video",
            "stream_index": 0,
            "key_frame": 0,
            "pts": 1739528,
            "pts_time": "19.328089",
            "pkt_dts": 1739528,
            "pkt_dts_time": "19.328089",
            "best_effort_timestamp": 1739528,
            "best_effort_timestamp_time": "19.328089",
            "duration": 3600,
            "duration_time": "0.040000",
            "pkt_pos": "528656",
            "pkt_size": "139",
            "width": 1280,
            "height": 720,
            "crop_top": 0,
            "crop_bottom": 0,
            "crop_left": 0,
            "crop_right": 0,
            "pix_fmt": "yuv420p",
            "pict_type": "B",
            "interlaced_frame": 0,
            "top_field_first": 0,
            "repeat_pict": 0,
            "color_range": "tv",
            "chroma_location": "left"
        },
        {
            "media_type": "video",
            "stream_index": 0,
            "key_frame": 0,
            "pts": 1743128,
            "pts_time": "19.368089",
            "pkt_dts": 1743128,
            "pkt_dts_time": "19.368089",
            "best_effort_timestamp": 1743128,
            "best_effort_timestamp_time": "19.368089",
            "duration": 3600,
            "duration_time": "0.040000",
            "pkt_pos": "513616",
            "pkt_size": "13417",
            "width": 1280,
            "height": 720,
            "crop_top": 0,
            "crop_bottom": 0,
            "crop_left": 0,
            "crop_right": 0,
            "pix_fmt": "yuv420p",
            "pict_type": "P",
            "interlaced_frame": 0,
            "top_field_first": 0,
            "repeat_pict": 0,
            "color_range": "tv",
            "chroma_location": "left"
        },
        {
            "media_type": "video",
            "stream_index": 0,
            "key_frame": 0,
            "pts": 1746728,
            "pts_time": "19.408089",
            "pkt_dts": 1746728,
            "pkt_dts_time": "19.408089",
            "best_effort_timestamp": 1746728,
            "best_effort_timestamp_time": "19.408089",
            "duration": 3600,
            "duration_time": "0.040000",
            "pkt_pos": "542192",
            "pkt_size": "192",
            "width": 1280,
            "height": 720,
            "crop_top": 0,
            "crop_bottom": 0,
            "crop_left": 0,
            "crop_right": 0,
            "pix_fmt": "yuv420p",
            "pict_type": "B",
            "interlaced_frame": 0,
            "top_field_first": 0,
            "repeat_pict": 0,
            "color_range": "tv",
            "chroma_location": "left"
        },
        {
            "media_type": "video",
            "stream_index": 0,
            "key_frame": 0,
            "pts": 1750328,
            "pts_time": "19.448089",
            "pkt_dts": 1750328,
            "pkt_dts_time": "19.448089",
            "best_effort_timestamp": 1750328,
            "best_effort_timestamp_time": "19.448089",
            "duration": 3600,
            "duration_time": "0.040000",
            "pkt_pos": "541628",
            "pkt_size": "549",
            "width": 1280,
            "height": 720,
            "crop_top": 0,
            "crop_bottom": 0,
            "crop_left": 0,
            "crop_right": 0,
            "pix_fmt": "yuv420p",
            "pict_type": "B",
            "interlaced_frame": 0,
            "top_field_first": 0,
            "repeat_pict": 0,
            "color_range": "tv",
            "chroma_location": "left"
        },
        {
            "media_type": "video",
            "stream_index": 0,
            "key_frame": 0,
            "pts": 1753928,
            "pts_time": "19.488089",
            "pkt_dts": 1753928,
            "pkt_dts_time": "19.488089",
            "best_effort_timestamp": 1753928,
            "best_effort_timestamp_time": "19.488089",
            "duration": 3600,
            "duration_time": "0.040000",
            "pkt_pos": "542380",
            "pkt_size": "135",
            "width": 1280,
            "height": 720,
            "crop_top": 0,
            "crop_bottom": 0,
            "crop_left": 0,
            "crop_right": 0,
            "pix_fmt": "yuv420p",
            "pict_type": "B",
            "interlaced_frame": 0,
            "top_field_first": 0,
            "repeat_pict": 0,
            "color_range": "tv",
            "chroma_location": "left"
        },
        {
            "media_type": "video",
            "stream_index": 0,
            "key_frame": 0,
            "pts": 1757528,
            "pts_time": "19.528089",
            "pkt_dts": 1757528,
            "pkt_dts_time": "19.528089",
            "best_effort_timestamp": 1757528,
            "best_effort_timestamp_time": "19.528089",
            "duration": 3600,
            "duration_time": "0.040000",
            "pkt_pos": "528844",
            "pkt_size": "12490",
            "width": 1280,
            "height": 720,
            "crop_top": 0,
            "crop_bottom": 0,
            "crop_left": 0,
            "crop_right": 0,
            "pix_fmt": "yuv420p",
            "pict_type": "P",
            "interlaced_frame": 0,
            "top_field_first": 0,
            "repeat_pict": 0,
            "color_range": "tv",
            "chroma_location": "left"
        },
        {
            "media_type": "video",
            "stream_index": 0,
            "key_frame": 0,
            "pts": 1761128,
            "pts_time": "19.568089",
            "pkt_dts": 1761128,
            "pkt_dts_time": "19.568089",
            "best_effort_timestamp": 1761128,
            "best_effort_timestamp_time": "19.568089",
            "duration": 3600,
            "duration_time": "0.040000",
            "pkt_pos": "557044",
            "pkt_size": "159",
            "width": 1280,
            "height": 720,
            "crop_top": 0,
            "crop_bottom": 0,
            "crop_left": 0,
            "crop_right": 0,
            "pix_fmt": "yuv420p",
            "pict_type": "B",
            "interlaced_frame": 0,
            "top_field_first": 0,
            "repeat_pict": 0,
            "color_range": "tv",
            "chroma_location": "left"
        },
        {
            "media_type": "video",
            "stream_index": 0,
            "key_frame": 0,
            "pts": 1764728,
            "pts_time": "19.608089",
            "pkt_dts": 1764728,
            "pkt_dts_time": "19.608089",
            "best_effort_timestamp": 1764728,
            "best_effort_timestamp_time": "19.608089",
            "duration": 3600,
            "duration_time": "0.040000",
            "pkt_pos": "556480",
            "pkt_size": "428",
            "width": 1280,
            "height": 720,
            "crop_top": 0,
            "crop_bottom": 0,
            "crop_left": 0,
            "crop_right": 0,
            "pix_fmt": "yuv420p",
            "pict_type": "B",
            "interlaced_frame": 0,
            "top_field_first": 0,
            "repeat_pict": 0,
            "color_range": "tv",
            "chroma_location": "left"
        },
        {
            "media_type": "video",
            "stream_index": 0,
            "key_frame": 0,
            "pts": 1768328,
            "pts_time": "19.648089",
            "pkt_dts": 1768328,
            "pkt_dts_time": "19.648089",
            "best_effort_timestamp": 1768328,
            "best_effort_timestamp_time": "19.648089",
            "duration": 3600,
            "duration_time": "0.040000",
            "pkt_pos": "557232",
            "pkt_size": "150",
            "width": 1280,
            "height": 720,
            "crop_top": 0,
            "crop_bottom": 0,
            "crop_left": 0,
            "crop_right": 0,
            "pix_fmt": "yuv420p",
            "pict_type": "B",
            "interlaced_frame": 0,
            "top_field_first": 0,
            "repeat_pict": 0,
            "color_range": "tv",
            "chroma_location": "left"
        },
        {
            "media_type": "video",
            "stream_index": 0,
            "key_frame": 0,
            "pts": 1771928,
            "pts_time": "19.688089",
            "pkt_dts": 1771928,
            "pkt_dts_time": "19.688089",
            "best_effort_timestamp": 1771928,
            "best_effort_timestamp_time": "19.688089",
            "duration": 3600,
            "duration_time": "0.040000",
            "pkt_pos": "542944",
            "pkt_size": "13191",
            "width": 1280,
            "height": 720,
            "crop_top": 0,
            "crop_bottom": 0,
            "crop_left": 0,
            "crop_right": 0,
            "pix_fmt": "yuv420p",
            "pict_type": "P",
            "interlaced_frame": 0,
            "top_field_first": 0,
            "repeat_pict": 0,
            "color_range": "tv",
            "chroma_location": "left"
        },
        {
            "media_type": "video",
            "stream_index": 0,
            "key_frame": 0,
            "pts": 1775528,
            "pts_time": "19.728089",
            "pkt_dts": 1775528,
            "pkt_dts_time": "19.728089",
            "best_effort_timestamp": 1775528,
            "best_effort_timestamp_time": "19.728089",
            "duration": 3600,
            "duration_time": "0.040000",
            "pkt_pos": "589568",
            "pkt_size": "135",
            "width": 1280,
            "height": 720,
            "crop_top": 0,
            "crop_bottom": 0,
            "crop_left": 0,
            "crop_right": 0,
            "pix_fmt": "yuv420p",
            "pict_type": "B",
            "interlaced_frame": 0,
            "top_field_first": 0,
            "repeat_pict": 0,
            "color_range": "tv",
            "chroma_location": "left"
        },
        {
            "media_type": "video",
            "stream_index": 0,
            "key_frame": 0,
            "pts": 1779128,
            "pts_time": "19.768089",
            "pkt_dts": 1779128,
            "pkt_dts_time": "19.768089",
            "best_effort_timestamp": 1779128,
            "best_effort_timestamp_time": "19.768089",
            "duration": 3600,
            "duration_time": "0.040000",
            "pkt_pos": "589192",
            "pkt_size": "309",
            "width": 1280,
            "height": 720,
            "crop_top": 0,
            "crop_bottom": 0,
            "crop_left": 0,
            "crop_right": 0,
            "pix_fmt": "yuv420p",
            "pict_type": "B",
            "interlaced_frame": 0,
            "top_field_first": 0,
            "repeat_pict": 0,
            "color_range": "tv",
            "chroma_location": "left"
        },
        {
            "media_type": "video",
            "stream_index": 0,
            "key_frame": 0,
            "pts": 1782728,
            "pts_time": "19.808089",
            "pkt_dts": 1782728,
            "pkt_dts_time": "19.808089",
            "best_effort_timestamp": 1782728,
            "best_effort_timestamp_time": "19.808089",
            "duration": 3600,
            "duration_time": "0.040000",
            "pkt_pos": "589756",
            "pkt_size": "119",
            "width": 1280,
            "height": 720,
            "crop_top": 0,
            "crop_bottom": 0,
            "crop_left": 0,
            "crop_right": 0,
            "pix_fmt": "yuv420p",
            "pict_type": "B",
            "interlaced_frame": 0,
            "top_field_first": 0,
            "repeat_pict": 0,
            "color_range": "tv",
            "chroma_location": "left"
        },
        {
            "media_type": "video",
            "stream_index": 0,
            "key_frame": 0,
            "pts": 1786328,
            "pts_time": "19.848089",
            "pkt_dts": 1786328,
            "pkt_dts_time": "19.848089",
            "best_effort_timestamp": 1786328,
            "best_effort_timestamp_time": "19.848089",
            "duration": 3600,
            "duration_time": "0.040000",
            "pkt_pos": "557796",
            "pkt_size": "30815",
            "width": 1280,
            "height": 720,
            "crop_top": 0,
            "crop_bottom": 0,
            "crop_left": 0,
            "crop_right": 0,
            "pix_fmt": "yuv420p",
            "pict_type": "P",
            "interlaced_frame": 0,
            "top_field_first": 0,
            "repeat_pict": 0,
            "color_range": "tv",
            "chroma_location": "left"
        },
        {
            "media_type": "video",
            "stream_index": 0,
            "key_frame": 0,
            "pts": 1789928,
            "pts_time": "19.888089",
            "pkt_dts": 1789928,
            "pkt_dts_time": "19.888089",
            "best_effort_timestamp": 1789928,
            "best_effort_timestamp_time": "19.888089",
            "duration": 3600,
            "duration_time": "0.040000",
            "pkt_pos": "600096",
            "pkt_size": "147",
            "width": 1280,
            "height": 720,
            "crop_top": 0,
            "crop_bottom": 0,
            "crop_left": 0,
            "crop_right": 0,
            "pix_fmt": "yuv420p",
            "pict_type": "B",
            "interlaced_frame": 0,
            "top_field_first": 0,
            "repeat_pict": 0,
            "color_range": "tv",
            "chroma_location": "left"
        },
        {
            "media_type": "video",
            "stream_index": 0,
            "key_frame": 0,
            "pts": 1793528,
            "pts_time": "19.928089",
            "pkt_dts": 1793528,
            "pkt_dts_time": "19.928089",
            "best_effort_timestamp": 1793528,
            "best_effort_timestamp_time": "19.928089",
            "duration": 3600,
            "duration_time": "0.040000",
            "pkt_pos": "599720",
            "pkt_size": "354",
            "width": 1280,
            "height": 720,
            "crop_top": 0,
            "crop_bottom": 0,
            "crop_left": 0,
            "crop_right": 0,
            "pix_fmt": "yuv420p",
            "pict_type": "B",
            "interlaced_frame": 0,
            "top_field_first": 0,
            "repeat_pict": 0,
            "color_range": "tv",
            "chroma_location": "left"
        },
        {
            "media_type": "video",
            "stream_index": 0,
            "key_frame": 0,
            "pts": 1797128,
            "pts_time": "19.968089",
            "pkt_dts": 1797128,
            "pkt_dts_time": "19.968089",
            "best_effort_timestamp": 1797128,
            "best_effort_timestamp_time": "19.968089",
            "duration": 3600,
            "duration_time": "0.040000",
            "pkt_pos": "600284",
            "pkt_size": "116",
            "width": 1280,
            "height": 720,
            "crop_top": 0,
            "crop_bottom": 0,
            "crop_left": 0,
            "crop_right": 0,
            "pix_fmt": "yuv420p",
            "pict_type": "B",
            "interlaced_frame": 0,
            "top_field_first": 0,
            "repeat_pict": 0,
            "color_range": "tv",
            "chroma_location": "left"
        },
        {
            "media_type": "video",
            "stream_index": 0,
            "key_frame": 0,
            "pts": 1800728,
            "pts_time": "20.008089",
            "pkt_dts": 1800728,
            "pkt_dts_time": "20.008089",
            "best_effort_timestamp": 1800728,
            "best_effort_timestamp_time": "20.008089",
            "duration": 3600,
            "duration_time": "0.040000",
            "pkt_pos": "589944",
            "pkt_size": "9231",
            "width": 1280,
            "height": 720,
            "crop_top": 0,
            "crop_bottom": 0,
            "crop_left": 0,
            "crop_right": 0,
            "pix_fmt": "yuv420p",
            "pict_type": "P",
            "interlaced_frame": 0,
            "top_field_first": 0,
            "repeat_pict": 0,
            "color_range": "tv",
            "chroma_location": "left"
        },
        {
            "media_type": "video",
            "stream_index": 0,
            "key_frame": 0,
            "pts": 1804328,
            "pts_time": "20.048089",
            "pkt_dts": 1804328,
            "pkt_dts_time": "20.048089",
            "best_effort_timestamp": 1804328,
            "best_effort_timestamp_time": "20.048089",
            "duration": 3600,
            "duration_time": "0.040000",
            "pkt_pos": "613256",
            "pkt_size": "162",
            "width": 1280,
            "height": 720,
            "crop_top": 0,
            "crop_bottom": 0,
            "crop_left": 0,
            "crop_right": 0,
            "pix_fmt": "yuv420p",
            "pict_type": "B",
            "interlaced_frame": 0,
            "top_field_first": 0,
            "repeat_pict": 0,
            "color_range": "tv",
            "chroma_location": "left"
        },
        {
            "media_type": "video",
            "stream_index": 0,
            "key_frame": 0,
            "pts": 1807928,
            "pts_time": "20.088089",
            "pkt_dts": 1807928,
            "pkt_dts_time": "20.088089",
            "best_effort_timestamp": 1807928,
            "best_effort_timestamp_time": "20.088089",
            "duration": 3600,
            "duration_time": "0.040000",
            "pkt_pos": "612880",
            "pkt_size": "263",
            "width": 1280,
            "height": 720,
            "crop_top": 0,
            "crop_bottom": 0,
            "crop_left": 0,
            "crop_right": 0,
            "pix_fmt": "yuv420p",
            "pict_type": "B",
            "interlaced_frame": 0,
            "top_field_first": 0,
            "repeat_pict": 0,
            "color_range": "tv",
            "chroma_location": "left"
        },
        {
            "media_type": "video",
            "stream_index": 0,
            "key_frame": 0,
            "pts": 1811528,
            "pts_time": "20.128089",
            "pkt_dts": 1811528,
            "pkt_dts_time": "20.128089",
            "best_effort_timestamp": 1811528,
            "best_effort_timestamp_time": "20.128089",
            "duration": 3600,
            "duration_time": "0.040000",
            "pkt_pos": "613444",
            "pkt_size": "103",
            "width": 1280,
            "height": 720,
            "crop_top": 0,
            "crop_bottom": 0,
            "crop_left": 0,
            "crop_right": 0,
            "pix_fmt": "yuv420p",
            "pict_type": "B",
            "interlaced_frame": 0,
            "top_field_first": 0,
            "repeat_pict": 0,
            "color_range": "tv",
            "chroma_location": "left"
        },
        {
            "media_type": "video",
            "stream_index": 0,
            "key_frame": 0,
            "pts": 1815128,
            "pts_time": "20.168089",
            "pkt_dts": 1815128,
            "pkt_dts_time": "20.168089",
            "best_effort_timestamp": 1815128,
            "best_effort_timestamp_time": "20.168089",
            "duration": 3600,
            "duration_time": "0.040000",
            "pkt_pos": "600472",
            "pkt_size": "11835",
            "width": 1280,
            "height": 720,
            "crop_top": 0,
            "crop_bottom": 0,
            "crop_left": 0,
            "crop_right": 0,
            "pix_fmt": "yuv420p",
            "pict_type": "P",
            "interlaced_frame": 0,
            "top_field_first": 0,
            "repeat_pict": 0,
            "color_range": "tv",
            "chroma_location": "left"
        },
        {
            "media_type": "video",
            "stream_index": 0,
            "key_frame": 0,
            "pts": 1818728,
            "pts_time": "20.208089",
            "pkt_dts": 1818728,
            "pkt_dts_time": "20.208089",
            "best_effort_timestamp": 1818728,
            "best_effort_timestamp_time": "20.208089",
            "duration": 3600,
            "duration_time": "0.040000",
            "pkt_pos": "620588",
            "pkt_size": "100",
            "width": 1280,
            "height": 720,
            "crop_top": 0,
            "crop_bottom": 0,
            "crop_left": 0,
            "crop_right": 0,
            "pix_fmt": "yuv420p",
            "pict_type": "B",
            "interlaced_frame": 0,
            "top_field_first": 0,
            "repeat_pict": 0,
            "color_range": "tv",
            "chroma_location": "left"
        },
        {
            "media_type": "video",
            "stream_index": 0,
            "key_frame": 0,
            "pts": 1822328,
            "pts_time": "20.248089",
            "pkt_dts": 1822328,
            "pkt_dts_time": "20.248089",
            "best_effort_timestamp": 1822328,
            "best_effort_timestamp_time": "20.248089",
            "duration": 3600,
            "duration_time": "0.040000",
            "pkt_pos": "620400",
            "pkt_size": "202",
            "width": 1280,
            "height": 720,
            "crop_top": 0,
            "crop_bottom": 0,
            "crop_left": 0,
            "crop_right": 0,
            "pix_fmt": "yuv420p",
            "pict_type": "B",
            "interlaced_frame": 0,
            "top_field_first": 0,
            "repeat_pict": 0,
            "color_range": "tv",
            "chroma_location": "left"
        },
        {
            "media_type": "video",
            "stream_index": 0,
            "key_frame": 0,
            "pts": 1825928,
            "pts_time": "20.288089",
            "pkt_dts": 1825928,
            "pkt_dts_time": "20.288089",
            "best_effort_timestamp": 1825928,
            "best_effort_timestamp_time": "20.288089",
            "duration": 3600,
            "duration_time": "0.040000",
            "pkt_pos": "620776",
            "pkt_size": "101",
            "width": 1280,
            "height": 720,
            "crop_top": 0,
            "crop_bottom": 0,
            "crop_left": 0,
            "crop_right": 0,
            "pix_fmt": "yuv420p",
            "pict_type": "B",
            "interlaced_frame": 0,
            "top_field_first": 0,
            "repeat_pict": 0,
            "color_range": "tv",
            "chroma_location": "left"
        },
        {
            "media_type": "video",
            "stream_index": 0,
            "key_frame": 0,
            "pts": 1829528,
            "pts_time": "20.328089",
            "pkt_dts": 1829528,
            "pkt_dts_time": "20.328089",
            "best_effort_timestamp": 1829528,
            "best_effort_timestamp_time": "20.328089",
            "duration": 3600,
            "duration_time": "0.040000",
            "pkt_pos": "613632",
            "pkt_size": "6693",
            "width": 1280,
            "height": 720,
            "crop_top": 0,
            "crop_bottom": 0,
            "crop_left": 0,
            "crop_right": 0,
            "pix_fmt": "yuv420p",
            "pict_type": "P",
            "interlaced_frame": 0,
            "top_field_first": 0,
            "repeat_pict": 0,
            "color_range": "tv",
            "chroma_location": "left"
        },
        {
            "media_type": "video",
            "stream_index": 0,
            "key_frame": 0,
            "pts": 1833128,
            "pts_time": "20.368089",
            "pkt_dts": 1833128,
            "pkt_dts_time": "20.368089",
            "best_effort_timestamp": 1833128,
            "best_effort_timestamp_time": "20.368089",
            "duration": 3600,
            "duration_time": "0.040000",
            "pkt_pos": "626416",
            "pkt_size": "144",
            "width": 1280,
            "height": 720,
            "crop_top": 0,
            "crop_bottom": 0,
            "crop_left": 0,
            "crop_right": 0,
            "pix_fmt": "yuv420p",
            "pict_type": "B",
            "interlaced_frame": 0,
            "top_field_first": 0,
            "repeat_pict": 0,
            "color_range": "tv",
            "chroma_location": "left"
        },
        {
            "media_type": "video",
            "stream_index": 0,
            "key_frame": 0,
            "pts": 1836728,
            "pts_time": "20.408089",
            "pkt_dts": 1836728,
            "pkt_dts_time": "20.408089",
            "best_effort_timestamp": 1836728,
            "best_effort_timestamp_time": "20.408089",
            "duration": 3600,
            "duration_time": "0.040000",
            "pkt_pos": "626604",
            "pkt_size": "174",
            "width": 1280,
            "height": 720,
            "crop_top": 0,
            "crop_bottom": 0,
            "crop_left": 0,
            "crop_right": 0,
            "pix_fmt": "yuv420p",
            "pict_type": "B",
            "interlaced_frame": 0,
            "top_field_first": 0,
            "repeat_pict": 0,
            "color_range": "tv",
            "chroma_location": "left"
        },
        {
            "media_type": "video",
            "stream_index": 0,
            "key_frame": 0,
            "pts": 1840328,
            "pts_time": "20.448089",
            "pkt_dts": 1840328,
            "pkt_dts_time": "20.448089",
            "best_effort_timestamp": 1840328,
            "best_effort_timestamp_time": "20.448089",
            "duration": 3600,
            "duration_time": "0.040000",
            "pkt_pos": "626040",
            "pkt_size": "223",
            "width": 1280,
            "height": 720,
            "crop_top": 0,
            "crop_bottom": 0,
            "crop_left": 0,
            "crop_right": 0,
            "pix_fmt": "yuv420p",
            "pict_type": "B",
            "interlaced_frame": 0,
            "top_field_first": 0,
            "repeat_pict": 0,
            "color_range": "tv",
            "chroma_location": "left"
        },
        {
            "media_type": "video",
            "stream_index": 0,
            "key_frame": 0,
            "pts": 1843928,
            "pts_time": "20.488089",
            "pkt_dts": 1843928,
            "pkt_dts_time": "20.488089",
            "best_effort_timestamp": 1843928,
            "best_effort_timestamp_time": "20.488089",
            "duration": 3600,
            "duration_time": "0.040000",
            "pkt_pos": "626792",
            "pkt_size": "118",
            "width": 1280,
            "height": 720,
            "crop_top": 0,
            "crop_bottom": 0,
            "crop_left": 0,
            "crop_right": 0,
            "pix_fmt": "yuv420p",
            "pict_type": "B",
            "interlaced_frame": 0,
            "top_field_first": 0,
            "repeat_pict": 0,
            "color_range": "tv",
            "chroma_location": "left"
        },
        {
            "media_type": "video",
            "stream_index": 0,
            "key_frame": 0,
            "pts": 1847528,
            "pts_time": "20.528089",
            "pkt_dts": 1847528,
            "pkt_dts_time": "20.528089",
            "best_effort_timestamp": 1847528,
            "best_effort_timestamp_time": "20.528089",
            "duration": 3600,
            "duration_time": "0.040000",
            "pkt_pos": "621340",
            "pkt_size": "4693",
            "width": 1280,
            "height": 720,
            "crop_top": 0,
            "crop_bottom": 0,
            "crop_left": 0,
            "crop_right": 0,
            "pix_fmt": "yuv420p",
            "pict_type": "P",
            "interlaced_frame": 0,
            "top_field_first": 0,
            "repeat_pict": 0,
            "color_range": "tv",
            "chroma_location": "left"
        },
        {
            "media_type": "video",
            "stream_index": 0,
            "key_frame": 0,
            "pts": 1851128,
            "pts_time": "20.568089",
            "pkt_dts": 1851128,
            "pkt_dts_time": "20.568089",
            "best_effort_timestamp": 1851128,
            "best_effort_timestamp_time": "20.568089",
            "duration": 3600,
            "duration_time": "0.040000",
            "pkt_pos": "637884",
            "pkt_size": "379",
            "width": 1280,
            "height": 720,
            "crop_top": 0,
            "crop_bottom": 0,
            "crop_left": 0,
            "crop_right": 0,
            "pix_fmt": "yuv420p",
            "pict_type": "B",
            "interlaced_frame": 0,
            "top_field_first": 0,
            "repeat_pict": 0,
            "color_range": "tv",
            "chroma_location": "left"
        },
        {
            "media_type": "video",
            "stream_index": 0,
            "key_frame": 0,
            "pts": 1854728,
            "pts_time": "20.608089",
            "pkt_dts": 1854728,
            "pkt_dts_time": "20.608089",
            "best_effort_timestamp": 1854728,
            "best_effort_timestamp_time": "20.608089",
            "duration": 3600,
            "duration_time": "0.040000",
            "pkt_pos": "638260",
            "pkt_size": "169",
            "width": 1280,
            "height": 720,
            "crop_top": 0,
            "crop_bottom": 0,
            "crop_left": 0,
            "crop_right": 0,
            "pix_fmt": "yuv420p",
            "pict_type": "B",
            "interlaced_frame": 0,
            "top_field_first": 0,
            "repeat_pict": 0,
            "color_range": "tv",
            "chroma_location": "left"
        },
        {
            "media_type": "video",
            "stream_index": 0,
            "key_frame": 0,
            "pts": 1858328,
            "pts_time": "20.648089",
            "pkt_dts": 1858328,
            "pkt_dts_time": "20.648089",
            "best_effort_timestamp": 1858328,
            "best_effort_timestamp_time": "20.648089",
            "duration": 3600,
            "duration_time": "0.040000",
            "pkt_pos": "636568",
            "pkt_size": "1188",
            "width": 1280,
            "height": 720,
            "crop_top": 0,
            "crop_bottom": 0,
            "crop_left": 0,
            "crop_right": 0,
            "pix_fmt": "yuv420p",
            "pict_type": "B",
            "interlaced_frame": 0,
            "top_field_first": 0,
            "repeat_pict": 0,
            "color_range": "tv",
            "chroma_location": "left"
        },
        {
            "media_type": "video",
            "stream_index": 0,
            "key_frame": 0,
            "pts": 1861928,
            "pts_time": "20.688089",
            "best_effort_timestamp": 1861928,
            "best_effort_timestamp_time": "20.688089",
            "duration": 3600,
            "duration_time": "0.040000",
            "pkt_pos": "639012",
            "pkt_size": "213",
            "width": 1280,
            "height": 720,
            "crop_top": 0,
            "crop_bottom": 0,
            "crop_left": 0,
            "crop_right": 0,
            "pix_fmt": "yuv420p",
            "pict_type": "B",
            "interlaced_frame": 0,
            "top_field_first": 0,
            "repeat_pict": 0,
            "color_range": "tv",
            "chroma_location": "left"
        },
        {
            "media_type": "video",
            "stream_index": 0,
            "key_frame": 0,
            "pts": 1865528,
            "pts_time": "20.728089",
            "best_effort_timestamp": 1865528,
            "best_effort_timestamp_time": "20.728089",
            "duration": 3600,
            "duration_time": "0.040000",
            "pkt_pos": "627356",
            "pkt_size": "9155",
            "width": 1280,
            "height": 720,
            "crop_top": 0,
            "crop_bottom": 0,
            "crop_left": 0,
            "crop_right": 0,
            "pix_fmt": "yuv420p",
            "pict_type": "P",
            "interlaced_frame": 0,
            "top_field_first": 0,
            "repeat_pict": 0,
            "color_range": "tv",
            "chroma_location": "left"
        }
    ]
}
